<mxfile host="app.diagrams.net" modified="2021-01-06T00:08:53.695Z" agent="5.0 (Windows NT 10.0; Win64; x64) AppleWebKit/537.36 (KHTML, like Gecko) Chrome/87.0.4280.88 Safari/537.36" etag="fxBa7TvQb1C4_UKwbJ8Y" version="14.1.8" type="github">
  <diagram id="hvT9SJjSXo-SfO40nzdT" name="Страница 1">
    <mxGraphModel dx="1422" dy="705" grid="1" gridSize="10" guides="1" tooltips="1" connect="1" arrows="1" fold="1" page="1" pageScale="1" pageWidth="827" pageHeight="1169" background="#ffffff" backgroundImage="{&quot;src&quot;:&quot;https://wallpaperset.com/w/full/f/e/a/59738.jpg#.X-jhqdpUgrY.link&quot;,&quot;width&quot;:&quot;1920&quot;,&quot;height&quot;:&quot;1200&quot;}" math="0" shadow="0">
      <root>
        <mxCell id="0" />
        <mxCell id="1" parent="0" />
      </root>
    </mxGraphModel>
  </diagram>
</mxfile>
